# Blender 4.2.0
# www.blender.org
mtllib cube4.mtl
o cube4
v 8.812962 -5.315266 -17.187696
v -18.080313 8.234747 24.195461
v 9.323137 -5.572315 -16.771988
v -17.570135 7.977697 24.611170
v 8.495058 -5.946222 -17.187696
v -18.398216 7.603790 24.195461
v 9.005234 -6.203271 -16.771988
v -17.888041 7.346741 24.611170
vn 0.4500 0.8930 -0.0000
vn 0.7221 -0.3638 0.5884
vn -0.4500 -0.8930 -0.0000
vn -0.7221 0.3638 -0.5884
vn 0.5255 -0.2648 -0.8086
vn -0.5255 0.2647 0.8086
vn -0.5255 0.2648 0.8086
vt 0.625000 0.000000
vt 0.375000 0.250000
vt 0.375000 0.000000
vt 0.625000 0.250000
vt 0.375000 0.500000
vt 0.625000 0.750000
vt 0.375000 0.750000
vt 0.625000 1.000000
vt 0.375000 1.000000
vt 0.125000 0.750000
vt 0.125000 0.500000
vt 0.625000 0.500000
vt 0.875000 0.750000
vt 0.875000 0.500000
s 0
f 2/1/1 3/2/1 1/3/1
f 4/4/2 7/5/2 3/2/2
f 7/5/3 6/6/3 5/7/3
f 5/7/4 2/8/4 1/9/4
f 7/5/5 1/10/5 3/11/5
f 8/12/6 2/13/6 6/6/6
f 2/1/1 4/4/1 3/2/1
f 4/4/2 8/12/2 7/5/2
f 7/5/3 8/12/3 6/6/3
f 5/7/4 6/6/4 2/8/4
f 7/5/5 5/7/5 1/10/5
f 8/12/7 4/14/7 2/13/7
